PathFileType	4	(X/Y/Z)	C:\Users\WrightLab\Desktop\Jo\P5V15.trc
DataRate	CameraRate	NumFrames	NumMarkers	Units	OrigDataRate	OrigDataStartFrame	OrigNumFrames
100.00	100.00	       14	19	mm	100.00	705	       805
Frame#	Time	Headset_Front			Headset_Back			Headset_Left			Headset_Right			Left_Shoulder			Right_Shoulder			Sternum			C7			Left Elbow			Right Elbow			Left Wrist			Right Wrist			Left ASIS			Right ASIS			S2			Left Knee			Right Knee			Left Ankle			Right Ankle			
		X1	Y1	Z1	X2	Y2	Z2	X3	Y3	Z3	X4	Y4	Z4	X5	Y5	Z5	X6	Y6	Z6	X7	Y7	Z7	X8	Y8	Z8	X9	Y9	Z9	X10	Y10	Z10	X11	Y11	Z11	X12	Y12	Z12	X13	Y13	Z13	X14	Y14	Z14	X15	Y15	Z15	X16	Y16	Z16	X17	Y17	Z17	X18	Y18	Z18	X19	Y19	Z19	

705	7.040										-241.15729	1627.84521	-995.50275	-1.32287	1476.44727	-731.76422	-133.77203	1433.72632	-1125.87927	-161.01361	1307.84631	-906.44263	-307.00366	1574.98315	-869.56769	28.82903	1175.19653	-671.24695	-82.23979	1159.68713	-1238.78674	-141.15639	1009.35217	-648.94141	-263.26703	1001.32184	-1178.01501	101.90066	940.76794	-953.80743				-142.76546	917.58643	-745.73132	-51.74080	476.08331	-742.72772	-287.87186	505.96371	-1046.97571	198.60985	110.18018	-668.74469	-283.61920	99.84554	-1188.97974	
706	7.050										-249.72742	1626.49744	-995.65009	-2.84826	1474.01746	-738.77368	-145.70535	1432.73596	-1130.85608	-167.92958	1306.95630	-910.48914	-312.13834	1572.96289	-867.72339	29.59625	1173.22974	-678.57794	-96.84016	1158.43091	-1243.19702	-141.07237	1008.13477	-652.57141	-276.13965	1000.41376	-1178.54883	93.48946	938.43066	-964.44110				-146.07822	916.76044	-750.58679	-53.51476	473.77896	-749.91675	-295.78152	501.97919	-1049.67200	198.69986	111.39722	-671.48364	-282.41080	96.61837	-1191.32556	
707	7.060										-258.10205	1625.12915	-994.89032	-3.36876	1471.62439	-746.90607	-157.31502	1431.50281	-1134.30225	-174.19121	1306.02283	-913.43494	69.34776	1430.90662	-800.74438	30.25432	1171.56409	-686.43585	-111.74334	1157.35132	-1248.47681	-140.07573	1007.33582	-656.38214	-289.65359	999.81226	-1178.45715	83.80216	936.59888	-975.38422				-148.07993	914.71448	-756.24988	-56.23924	470.98743	-757.67902	-303.06592	496.85983	-1052.75598	199.09232	112.53930	-673.10907	-280.51361	92.66949	-1192.65125	
708	7.070										-266.24799	1624.20520	-993.73987	-5.87869	1469.67004	-752.92474	-168.88704	1430.94812	-1138.14551	-180.82835	1305.05957	-917.02570	63.64460	1427.72095	-798.48468	29.06409	1170.57056	-693.77179	-126.48856	1156.62048	-1253.06860	-139.66322	1006.22668	-660.02307	-302.20651	998.84210	-1178.51111	75.14671	935.00354	-985.93335				-151.22897	912.41553	-762.07947	-56.98536	469.25409	-765.37006	-309.73016	492.73776	-1056.26245	200.55771	114.08427	-675.38928	-278.32617	90.53522	-1193.94946	
709	7.080										-274.19394	1623.39233	-992.47400				-180.30209	1430.25696	-1141.23523	-187.16521	1304.72095	-920.33820				29.75388	1169.48865	-702.26105	-141.15172	1155.70654	-1257.22632	-139.33133	1006.34760	-663.34235	-315.34225	998.10858	-1177.23450	67.46884	933.48053	-997.28033				-153.03778	910.62366	-768.17108	-58.92394	467.07590	-773.70526	-314.65161	488.78168	-1060.47559	200.38750	115.77241	-677.43384	-277.58923	86.89577	-1195.10828	
710	7.090										-281.82877	1622.73010	-990.74481	-270.44608	934.09271	-1050.72595	-191.66574	1429.66748	-1144.37598	-193.70494	1304.28333	-923.43103				31.24075	1168.94177	-709.17548	-155.50928	1155.68140	-1262.02222	-138.33928	1006.02502	-666.75458	-326.60391	997.64001	-1177.57813	59.26935	931.02087	-1006.72803				-154.87724	910.17609	-774.18048	-59.56759	465.21179	-780.90399	-318.80896	485.99750	-1066.78442	201.62614	118.80528	-680.64734	-276.62332	84.87137	-1195.50513	
711	7.100										-289.14340	1622.34863	-989.11786	-277.91833	932.15900	-1052.28906	-202.51938	1429.69055	-1146.24548	-199.97061	1304.30579	-925.81787				31.18740	1167.49866	-719.10602	-169.58093	1155.55127	-1265.41113	-136.68100	1005.99628	-670.52625	-338.19485	997.06732	-1176.80713	51.41024	930.81274	-1017.20697				-157.46190	908.47412	-780.79156	-62.20684	465.61298	-788.35175	-321.04401	484.88348	-1073.28650	202.88387	120.58439	-684.25122	-276.73422	82.68539	-1195.83105	
712	7.110										-296.16391	1621.90784	-987.25031	-284.28879	931.46460	-1054.80286	-213.54977	1429.65894	-1148.78247	-205.87262	1304.63977	-928.22028				31.49068	1168.06177	-727.12000	-183.62033	1155.28906	-1268.81519	-135.67464	1006.67316	-673.91583	-350.21255	997.61932	-1177.07593	43.84950	929.89374	-1027.85522				-159.86777	907.73914	-786.93762	-65.36968	466.75946	-792.52899	-323.39828	483.65854	-1080.30518	204.38802	124.81181	-688.49768	-278.00754	81.64642	-1196.38928	
713	7.120				-21.05638	1456.19934	-789.92542				-302.89362	1622.06628	-985.64850	-292.12650	931.14740	-1057.32935	-224.26640	1429.87866	-1150.75415	-212.06824	1305.63879	-929.88818				31.93353	1168.34509	-735.84113				-134.36339	1007.12317	-678.09125	-361.33957	997.04907	-1175.54370	36.81182	929.33795	-1037.22229				-160.79233	907.62933	-792.80023	-69.70155	469.11710	-795.06818	-325.01865	482.38412	-1087.38574	205.33713	127.46788	-693.96399	-278.50204	80.76483	-1196.16455	
714	7.130				-29.30939	1456.57654	-790.50366				-309.42615	1621.89441	-983.76886	-300.14081	932.09912	-1059.07861	-234.66765	1430.21045	-1151.89294	-213.59384	1304.39233	-932.32056				32.89233	1168.99939	-743.70782				-132.50833	1007.86145	-682.63312	-372.32953	996.88959	-1174.05310	29.83200	930.11847	-1047.56750				-163.40134	907.39819	-799.50751	-73.66232	470.89789	-795.79449	-326.59753	481.27350	-1094.56958	207.05533	131.21455	-700.74097	-279.25299	80.14447	-1196.14246	
715	7.140										-315.51855	1622.90625	-981.53351	-307.54272	933.38049	-1061.24097	-244.98515	1430.79431	-1153.63696	-218.19321	1304.86035	-934.45667				32.97678	1169.31665	-752.43402				-130.48198	1009.10046	-686.20435	-382.87341	997.60046	-1173.10620	23.18794	930.87158	-1057.04736				-164.38257	907.38989	-805.57770	-77.98539	471.64175	-798.78235	-327.79929	479.46353	-1101.70056	209.04456	135.57079	-708.32092	-279.63168	79.83784	-1196.06506	
716	7.150										-321.29465	1623.80481	-978.42712	35.25629	1170.58997	-761.40918	-255.00882	1431.54700	-1154.74243	-221.18233	1305.56641	-936.83716							-313.84290	934.21448	-1063.32678	-127.42647	1010.28442	-690.83374	-393.14072	998.46008	-1172.24084	17.40892	932.43506	-1066.97253				-165.36302	907.28680	-811.41309	-81.78368	470.80890	-802.81415	-328.85733	478.10107	-1108.68811	210.65691	140.33955	-716.75818	-280.00400	79.52414	-1196.12048	
717	7.160										-326.81528	1625.10486	-975.93872	36.04333	1170.85461	-769.47925	-264.72827	1432.38403	-1155.51501	-225.97601	1305.87231	-938.82532							-318.65820	934.87622	-1063.97302	-125.61781	1011.86877	-695.54767	-403.29437	999.57202	-1170.77161	11.26455	933.15308	-1074.44458				-166.49748	907.86945	-817.55353	-86.35371	472.57297	-804.83575	-329.97427	476.34528	-1115.11597	211.48859	144.23975	-726.25336	-280.63892	79.53152	-1195.68689	
718	7.170										-331.89279	1626.45715	-972.11548	38.95088	1172.87085	-779.88519	-274.14218	1433.41711	-1156.42859	-227.64441	1305.76440	-940.88623							-324.37653	935.82239	-1065.09692	-123.32059	1014.41925	-700.18628	-412.53705	1000.19366	-1169.05237	6.74582	934.90717	-1083.34644				-165.68300	908.78632	-822.32062	-90.72755	472.15152	-806.24664	-331.83450	475.83261	-1120.55042	212.82016	149.87837	-735.83160	-280.99829	79.25587	-1195.44897	
